<?xml version="1.0" encoding="iso-8859-1"?>
<!-- Generator: Adobe Illustrator 27.2.0, SVG Export Plug-In . SVG Version: 6.00 Build 0)  -->
<svg version="1.1" id="Capa_1" xmlns="http://www.w3.org/2000/svg" xmlns:xlink="http://www.w3.org/1999/xlink" x="0px" y="0px"
	 viewBox="0 0 510 510" style="enable-background:new 0 0 510 510;" xml:space="preserve">
<g>
	<g>
		<path style="fill:#FFFFFF;" d="M369.333,500c0,0,0-377.627,0-457.333c0-8.665-3.438-16.97-9.571-23.095
			C353.637,13.438,345.331,10,336.667,10C266.564,10,108,10,108,10l-98,98c0,0,0,265.188,0,359.333
			C10,485.374,24.626,500,42.667,500c50.209,0,145.792,0,196,0H369.333z"/>
		<path style="fill:#D2DCFD;" d="M369.333,270.333c-32.986,0-63.999,12.845-87.326,36.17c-14.091,14.09-24.357,30.983-30.278,49.425
			c-15.794,4.591-30.272,13.112-42.238,25.071c-18.695,18.698-28.991,43.558-28.991,70c0,17.814,4.732,34.543,13.001,49
			c43.643,0,175.832-0.573,175.832-0.573S369.333,300.263,369.333,270.333z"/>
		<path style="fill:#D2DCFD;" d="M10,108c0,0,0,5.934,0,16.333c0,0,47.873,0,81.667,0c18.04,0,32.667-14.626,32.667-32.667
			c0-33.79,0-81.667,0-81.667C114.06,10,108,10,108,10L10,108z"/>
		<path style="fill:#67CCD1;" d="M279.5,500c-27.064,0-49-21.938-49-49l0,0c0-12.996,5.161-25.459,14.349-34.648
			C254.044,407.162,266.507,402,279.5,402c9.375,0,16.333,0,16.333,0s0-3.131,0-8.167c0-19.493,7.742-38.188,21.527-51.973
			c13.785-13.784,32.479-21.527,51.973-21.527l0,0c19.494,0,38.187,7.744,51.973,21.527c13.785,13.784,21.527,32.48,21.527,51.973
			c0,5.036,0,8.167,0,8.167s3.234,0,8.167,0c27.064,0,49,21.938,49,49l0,0c0,27.062-21.936,49-49,49
			C402.343,500,328.157,500,279.5,500z"/>
	</g>
	<g>
		<path style="fill:#052A75;" d="M255,216H91.666c-5.523,0-10-4.477-10-10c0-5.523,4.477-10,10-10H255c5.523,0,10,4.477,10,10
			C265,211.523,260.523,216,255,216z"/>
		<path style="fill:#052A75;" d="M255,281.333H91.666c-5.523,0-10-4.477-10-10c0-5.523,4.477-10,10-10H255c5.523,0,10,4.477,10,10
			C265,276.856,260.523,281.333,255,281.333z"/>
		<path style="fill:#052A75;" d="M255,346.667H91.666c-5.523,0-10-4.477-10-10c0-5.523,4.477-10,10-10H255c5.523,0,10,4.477,10,10
			C265,342.19,260.523,346.667,255,346.667z"/>
		<path style="fill:#052A75;" d="M173.333,412H91.666c-5.523,0-10-4.477-10-10s4.477-10,10-10h81.667c5.523,0,10,4.477,10,10
			S178.856,412,173.333,412z"/>
		<path style="fill:#052A75;" d="M452.814,392.027c-0.456-21.629-9.093-41.894-24.438-57.238
			c-13.389-13.387-30.528-21.645-49.043-23.842V42.667c0-11.403-4.441-22.119-12.499-30.169C358.777,4.439,348.063,0,336.666,0H108
			c-2.652,0-5.196,1.054-7.071,2.929l-98,98C1.054,102.804,0,105.348,0,108v359.333C0,490.86,19.14,510,42.666,510h228.667v-0.578
			c2.671,0.372,5.395,0.578,8.167,0.578H451c32.533,0,59-26.467,59-59C510,419.075,484.51,392.991,452.814,392.027z M112.142,20
			h2.191v71.667c0,12.498-10.168,22.667-22.667,22.667H20v-2.191L112.142,20z M20,467.333v-333h71.666
			c23.527,0,42.667-19.14,42.667-42.667V20h202.333c6.054,0,11.744,2.357,16.029,6.643c4.281,4.276,6.638,9.966,6.638,16.023v268.28
			c-18.515,2.197-35.654,10.455-49.043,23.843c-15.338,15.336-23.974,35.592-24.437,57.21H279.5
			c-15.754,0-30.571,6.136-41.723,17.282C226.636,420.425,220.5,435.241,220.5,451c0,14.941,5.593,28.594,14.782,39H42.666
			C30.168,490,20,479.832,20,467.333z M451,490H279.5c-21.505,0-39-17.495-39-39c0-10.418,4.056-20.211,11.418-27.575
			C259.29,416.058,269.085,412,279.5,412h16.333c5.523,0,10-4.477,10-10v-8.167c0-16.963,6.605-32.909,18.598-44.901
			c11.995-11.994,27.941-18.599,44.902-18.599c16.96,0,32.907,6.605,44.902,18.599c11.993,11.992,18.598,27.939,18.598,44.901V402
			c0,5.523,4.477,10,10,10H451c21.505,0,39,17.495,39,39S472.505,490,451,490z"/>
	</g>
</g>
<g>
</g>
<g>
</g>
<g>
</g>
<g>
</g>
<g>
</g>
<g>
</g>
<g>
</g>
<g>
</g>
<g>
</g>
<g>
</g>
<g>
</g>
<g>
</g>
<g>
</g>
<g>
</g>
<g>
</g>
</svg>
