<svg viewBox="0 0 512 512" xmlns="http://www.w3.org/2000/svg"><g id="Layer_2" data-name="Layer 2"><g id="Layer_1-2" data-name="Layer 1"><g id="C"><circle cx="256" cy="256" fill="#4161af" r="256"/><path d="m261.27 394.72c-71.06 0-93.84-54.06-93.84-141.1s22.78-136.34 93.84-136.34c57.46 0 81.6 38.76 81.6 72.08 0 9.18-3.4 17-14.62 17h-22.44c-9.86 0-17.68-5.1-18.7-13.94-2-17-4.08-30.6-25.84-30.6-28.56 0-32.3 34.68-32.3 91.8 0 61.2 3.74 95.88 32.3 95.88 22.78 0 25.84-20.74 27.2-34 1-11.22 7.82-16.32 17.68-16.32h21.42c12.24 0 17 5.1 17 19.38 0 34.68-24.82 76.16-83.3 76.16z" fill="#fff"/></g></g></g></svg>