<?xml version="1.0" encoding="utf-8"?>
<!DOCTYPE svg PUBLIC "-//W3C//DTD SVG 1.0//EN" "http://www.w3.org/TR/2001/REC-SVG-20010904/DTD/svg10.dtd">
<svg version="1.0" xmlns="http://www.w3.org/2000/svg" width="200px" height="200px" viewBox="0 0 200 200" preserveAspectRatio="xMidYMid meet">
 <g fill="#5ee3e3">
  <path d="M51.4 146.1 c-13.9 -2.5 -24 -17.6 -20.4 -30.5 3.5 -12.7 12.6 -19.5 26.1 -19.6 4.2 0 4.8 -0.3 5.3 -2.6 1.2 -4.5 9.7 -12.1 15.7 -13.8 2.9 -0.9 6.3 -1.6 7.6 -1.6 1.6 0 2.7 -0.9 3.7 -3.2 5.5 -12.9 19.5 -21.7 32.5 -20.5 18.9 1.7 32.7 18.7 30.4 37.5 -0.5 4.7 -0.5 4.9 2.8 6.5 4 1.9 10.1 8 12.3 12.3 5.9 11.9 0.5 26.9 -12.1 33 l-5.7 2.8 -47 0.2 c-25.9 0.2 -48.9 -0.1 -51.2 -0.5z m80.9 -38.1 c0.5 -0.4 -3.1 -2.1 -8 -3.7 -8.7 -2.9 -8.8 -3 -9.1 -6.5 -0.2 -2.7 0.7 -5.6 3.5 -11 2.1 -4 3.9 -7.5 4 -7.8 0.2 -0.3 -1.9 -0.5 -4.6 -0.5 -4.6 0.1 -5.7 0.7 -18 9.9 -7.2 5.4 -13.3 10.1 -13.6 10.6 -0.2 0.4 3.6 2 8.5 3.6 8.7 2.8 9 3 9 5.9 0 1.7 -1.8 6.4 -4 10.5 -2.2 4.1 -4 7.8 -4 8.3 0 0.4 1.6 0.7 3.5 0.7 1.9 0 3.5 0.5 3.5 1 0 0.8 24.7 -16.9 29.3 -21z"/>
 </g>
 <g fill="#ffffff">
  <path d="M84 141.5 c0 -0.3 3.7 -7.6 8.3 -16.3 4.5 -8.6 8.3 -15.9 8.5 -16.3 0.2 -0.4 -1 -1 -2.7 -1.4 -1.6 -0.3 -7.1 -2.1 -12.2 -3.9 l-9.3 -3.3 4 -2.6 c2.1 -1.4 12.5 -9.1 22.9 -17 10.5 -8 19.1 -14.4 19.3 -14.2 0.2 0.1 -0.9 2.4 -2.4 5 -2.5 4.5 -2 5 1.9 1.7 2.8 -2.5 2 -0.2 -4.6 12.3 l-6.3 12 10.3 3.5 10.3 3.4 0 3.6 c0 3.5 -0.5 4 -17 16.3 -9.3 7 -17.2 12.7 -17.5 12.7 -0.3 0 0.1 -1.3 1 -3 0.9 -1.6 1.3 -3 0.9 -3 -0.3 0 -3.4 2.2 -6.8 4.8 -7 5.5 -8.6 6.6 -8.6 5.7z"/>
 </g>
 <g fill="#020947">
  <path d="M74.2 146.3 c10.8 -0.2 28.8 -0.2 40 0 11.2 0.1 2.3 0.2 -19.7 0.2 -22 0 -31.1 -0.1 -20.3 -0.2z"/>
  <path d="M97.7 135.6 c2.4 -5 4.2 -6.7 17 -16.3 7.9 -5.8 14.3 -10.9 14.3 -11.3 0 -0.3 -5.2 -2.3 -11.5 -4.3 -6.3 -2.1 -11.5 -4 -11.5 -4.3 0 -0.2 2.7 -5.5 6 -11.7 5.8 -11 6.2 -11.5 14.6 -17.6 l8.7 -6.3 -8.7 16.7 c-4.9 9.2 -8.4 17.1 -7.9 17.5 0.4 0.4 5.1 2.2 10.3 3.9 5.2 1.7 10.1 3.5 10.8 3.9 0.8 0.6 -5.6 6 -19.9 16.8 -11.7 8.7 -22.1 16.5 -23.1 17.2 -1.5 1.1 -1.4 0.4 0.9 -4.2z"/>
 </g>
</svg>