<svg id="Capa_1" enable-background="new 0 0 512 512" height="512" viewBox="0 0 512 512" width="512" xmlns="http://www.w3.org/2000/svg"><g><g><path d="m256 0 55.991 129.17-55.991 148.83h-200c-8.284 0-15-6.716-15-15v-248c0-8.284 6.716-15 15-15z" fill="#e6eaff"/><path d="m471 15v248c0 8.28-6.72 15-15 15h-200v-278h200c8.28 0 15 6.72 15 15z" fill="#ccd5ff"/><g><path d="m256 262 71.701 129-71.701 107h-226.88c-7.8 0-14.12-6.01-14.12-13.42v-209.16c0-7.41 6.32-13.42 14.12-13.42z" fill="#e62ea8"/></g><path d="m497 275.42v209.16c0 7.41-6.32 13.42-14.12 13.42h-226.88v-236h226.88c7.8 0 14.12 6.01 14.12 13.42z" fill="#b32483"/><g><path d="m256 278 18.408-17.45-18.408-12.55h-241c-8.28 0-15 6.72-15 15v234c0 8.28 6.72 15 15 15h241l18.408-18.797-18.408-11.203h-226v-204z" fill="#f6c"/></g><path d="m512 263v234c0 8.28-6.72 15-15 15h-241v-30h226v-204h-226v-30h241c8.28 0 15 6.72 15 15z" fill="#e62ea8"/></g><path d="m256 60.01 7.31 72.212-7.31 85.768c-.12.01-.25.01-.38.01-8.29 0-15-6.72-15-15v-128c0-8.28 6.71-15 15-15 .13 0 .26 0 .38.01z" fill="#6599ff"/><path d="m330.62 105v68c0 8.28-6.72 15-15 15-8.29 0-15-6.72-15-15v-68c0-8.28 6.71-15 15-15 8.28 0 15 6.72 15 15z" fill="#676cff"/><path d="m390.62 130v18c0 8.28-6.72 15-15 15-8.29 0-15-6.72-15-15v-18c0-8.28 6.71-15 15-15 8.28 0 15 6.72 15 15z" fill="#676cff"/><path d="m195.615 90c-8.284 0-15 6.716-15 15v68c0 8.284 6.716 15 15 15s15-6.716 15-15v-68c0-8.284-6.716-15-15-15z" fill="#6599ff"/><path d="m135.615 115c-8.284 0-15 6.716-15 15v18c0 8.284 6.716 15 15 15s15-6.716 15-15v-18c0-8.284-6.716-15-15-15z" fill="#6599ff"/><g><path d="m224.47 431.66c-2.95 7.74.93 16.41 8.68 19.35 7.74 2.95 16.4-.93 19.35-8.68l3.5-9.19 9.887-53.141-9.887-31.139z" fill="#e6eaff"/><path d="m203.161 308.501c-8.124-1.613-16.022 3.659-17.639 11.784l-12.629 63.458-20.073-65.155c-2.439-7.918-10.835-12.357-18.751-9.919-5.356 1.65-9.111 6.028-10.232 11.138l-19.794 63.948-12.593-63.662c-1.607-8.126-9.499-13.41-17.625-11.804-8.127 1.607-13.412 9.499-11.804 17.626l22.21 112.281c1.649 8.002 8.999 13.843 17.138 13.801 7.651.009 14.486-5.004 16.766-12.31l20.349-65.741 20.257 65.754c2.278 7.298 9.124 12.308 16.758 12.296 8.158.039 15.493-5.809 17.148-13.817l22.298-112.039c1.617-8.124-3.659-16.022-11.784-17.639z" fill="#e6eaff"/><g fill="#ccd5ff"><path d="m439.993 308.978c-7.864-2.613-16.353 1.644-18.964 9.507l-25.679 77.299-26.97-77.698c-2.716-7.826-11.261-11.964-19.089-9.252-7.826 2.717-11.968 11.264-9.251 19.09l38.975 112.281c2.455 7.055 9.133 11.795 16.594 11.793 7.549.003 14.29-4.852 16.672-12.017l37.22-112.039c2.61-7.862-1.646-16.352-9.508-18.964z"/><path d="m342.52 431.7-42.42-112.39c-2.6-6.83-9.12-11.31-16.42-11.31-7.29 0-13.8 4.46-16.41 11.27l-11.27 29.59v84.28l3.48-9.13h48.07l6.9 18.28c2.92 7.83 11.78 11.65 19.33 8.74 7.75-2.93 11.66-11.58 8.74-19.33zm-71.61-37.69 12.72-33.4 12.6 33.4z"/></g></g><path d="m270.62 75v128c0 8.15-6.51 14.79-14.62 14.99v-157.98c8.11.2 14.62 6.84 14.62 14.99z" fill="#676cff"/></g></svg>